<?xml version="1.0" encoding="UTF-8"?>
<svg xmlns="http://www.w3.org/2000/svg" xmlns:xlink="http://www.w3.org/1999/xlink" width="13" height="12" viewBox="0 0 13 12">
<path fill-rule="nonzero" fill="rgb(0%, 0%, 0%)" fill-opacity="1" d="M 5.375 7.625 L 5.375 11.875 C 5.375 12.039062 5.441406 12.199219 5.558594 12.316406 C 5.675781 12.433594 5.835938 12.5 6 12.5 C 6.164062 12.5 6.324219 12.433594 6.441406 12.316406 C 6.558594 12.199219 6.625 12.039062 6.625 11.875 L 6.625 7.625 L 7.125 7.125 L 11.375 7.125 C 11.539062 7.125 11.699219 7.058594 11.816406 6.941406 C 11.933594 6.824219 12 6.664062 12 6.5 C 12 6.335938 11.933594 6.175781 11.816406 6.058594 C 11.699219 5.941406 11.539062 5.875 11.375 5.875 L 7.125 5.875 L 6.625 5.375 L 6.625 1.125 C 6.625 0.960938 6.558594 0.800781 6.441406 0.683594 C 6.324219 0.566406 6.164062 0.5 6 0.5 C 5.835938 0.5 5.675781 0.566406 5.558594 0.683594 C 5.441406 0.800781 5.375 0.960938 5.375 1.125 L 5.375 5.375 L 4.875 5.875 L 0.625 5.875 C 0.460938 5.875 0.300781 5.941406 0.183594 6.058594 C 0.0664062 6.175781 0 6.335938 0 6.5 C 0 6.664062 0.0664062 6.824219 0.183594 6.941406 C 0.300781 7.058594 0.460938 7.125 0.625 7.125 L 4.761719 7.125 Z M 5.375 7.625 "/>
</svg>
