<?xml version="1.0" encoding="UTF-8"?>
<svg xmlns="http://www.w3.org/2000/svg" xmlns:xlink="http://www.w3.org/1999/xlink" width="13" height="12" viewBox="0 0 13 12">
<path fill-rule="nonzero" fill="rgb(98.431373%, 98.431373%, 99.607843%)" fill-opacity="1" d="M 6 0.5 C 5.210938 0.5 4.433594 0.65625 3.703125 0.957031 C 2.976562 1.257812 2.316406 1.699219 1.757812 2.257812 C 1.199219 2.816406 0.757812 3.476562 0.457031 4.203125 C 0.15625 4.933594 0 5.710938 0 6.5 C 0 7.289062 0.15625 8.066406 0.457031 8.796875 C 0.757812 9.523438 1.199219 10.183594 1.757812 10.742188 C 2.316406 11.300781 2.976562 11.742188 3.703125 12.042969 C 4.433594 12.34375 5.210938 12.5 6 12.5 C 7.589844 12.5 9.117188 11.867188 10.242188 10.742188 C 11.367188 9.617188 12 8.089844 12 6.5 C 12 4.910156 11.367188 3.382812 10.242188 2.257812 C 9.117188 1.132812 7.589844 0.5 6 0.5 Z M 5.058594 8.898438 L 2.945312 6.785156 C 2.851562 6.691406 2.800781 6.566406 2.800781 6.433594 C 2.800781 6.300781 2.851562 6.171875 2.945312 6.078125 C 3.042969 5.984375 3.167969 5.933594 3.300781 5.933594 C 3.433594 5.933594 3.5625 5.984375 3.65625 6.078125 L 5.3125 7.738281 L 8.347656 4.699219 C 8.441406 4.609375 8.566406 4.5625 8.699219 4.5625 C 8.828125 4.566406 8.953125 4.617188 9.046875 4.710938 C 9.136719 4.800781 9.191406 4.925781 9.191406 5.058594 C 9.195312 5.1875 9.144531 5.3125 9.054688 5.410156 L 5.5625 8.898438 Z M 5.058594 8.898438 "/>
</svg>
