<?xml version="1.0" encoding="UTF-8"?>
<svg xmlns="http://www.w3.org/2000/svg" xmlns:xlink="http://www.w3.org/1999/xlink" width="64" height="64" viewBox="0 0 64 64">
<path fill-rule="nonzero" fill="rgb(100%, 100%, 0%)" fill-opacity="1" stroke-width="1.726652" stroke-linecap="butt" stroke-linejoin="miter" stroke="rgb(0%, 0%, 0%)" stroke-opacity="1" stroke-miterlimit="4" d="M 25.472656 9.492188 C 25.300781 12.140625 30.140625 14.445312 34.703125 13.527344 C 40.625 12.542969 41.398438 7.386719 35.976562 5.777344 C 31.402344 4.15625 25.15625 6.542969 25.472656 9.492188 Z M 4.523438 17.652344 C 4.066406 11.832031 9.273438 5.925781 18.4375 3.097656 C 29.75 -0.871094 45.496094 1.402344 53.605469 7.109375 C 62.878906 13.300781 60.761719 23.316406 50.433594 28.703125 C 48.648438 30.339844 44.050781 29.917969 43.363281 31.890625 C 42.324219 32.863281 42.078125 33.941406 42.132812 35.058594 C 43.148438 37.058594 38.300781 36.691406 38.859375 38.816406 C 39.449219 44.082031 38.683594 49.355469 38.5 54.625 C 38.007812 56.808594 39.660156 59.199219 37.761719 61.234375 C 35.28125 63.558594 30.457031 63.425781 28.570312 60.960938 C 25.835938 59.21875 20.316406 57.34375 22.464844 54.621094 C 25.933594 52.914062 20.347656 51.171875 22.898438 49.539062 C 27.957031 48.148438 20.503906 47.234375 22.75 45.207031 C 25.820312 44.226562 24.808594 42.6875 22.53125 41.664062 C 24.40625 39.859375 24.015625 36.796875 19.964844 35.722656 C 20.117188 33.917969 22.871094 31.585938 18.285156 30.519531 C 10.261719 27.882812 4.6875 22.949219 4.523438 17.652344 Z M 4.523438 17.652344 "/>
</svg>
