<?xml version="1.0" encoding="UTF-8"?>
<svg xmlns="http://www.w3.org/2000/svg" xmlns:xlink="http://www.w3.org/1999/xlink" width="40" height="40" viewBox="0 0 40 40">
<path fill-rule="evenodd" fill="rgb(100%, 100%, 0%)" fill-opacity="1" stroke-width="1.308268" stroke-linecap="butt" stroke-linejoin="miter" stroke="rgb(0%, 0%, 0%)" stroke-opacity="1" stroke-miterlimit="4" d="M 1.769531 62.597656 L 38.230469 62.597656 L 38.230469 97.402344 L 1.769531 97.402344 Z M 1.769531 62.597656 " transform="matrix(1, 0, 0, 1, 0, -60)"/>
<path fill-rule="nonzero" fill="rgb(100%, 100%, 100%)" fill-opacity="1" stroke-width="1.027684" stroke-linecap="butt" stroke-linejoin="miter" stroke="rgb(0%, 0%, 0%)" stroke-opacity="1" stroke-miterlimit="4" d="M 20 64.527031 C 11.453782 64.527031 4.527032 71.453781 4.527032 79.999999 C 4.527032 88.546217 11.453782 95.472966 20 95.472966 C 28.546218 95.472966 35.472967 88.546217 35.472967 79.999999 C 35.472967 71.453781 28.546218 64.527031 20 64.527031 Z M 19.590732 74.015006 C 23.120117 74.015006 25.984993 76.853477 25.984993 80.352057 C 25.984993 83.846237 23.120117 86.684708 19.590732 86.684708 C 16.065747 86.684708 13.196471 83.846237 13.196471 80.352057 C 13.196471 76.853477 16.065747 74.015006 19.590732 74.015006 Z M 19.590732 74.015006 " transform="matrix(0.887637, 0, 0, 0.887637, 2.247265, -51.010942)"/>
<path fill-rule="nonzero" fill="rgb(0%, 0%, 0%)" fill-opacity="1" d="M 8.667969 12.738281 L 13.078125 16.433594 C 11.589844 18.726562 11.796875 21.820312 13.222656 24.136719 L 8.671875 27.175781 C 9.269531 28.269531 11.347656 30.324219 12.429688 30.898438 L 15.898438 26.84375 C 18.152344 28.140625 20.984375 28.082031 23.386719 26.734375 L 26.46875 32.15625 C 27.46875 31.761719 30.675781 29.09375 31.273438 27.714844 L 26.425781 23.792969 C 27.707031 21.640625 27.890625 19.117188 26.921875 16.914062 L 32.160156 13.511719 C 31.664062 12.636719 29.421875 10.253906 28.015625 9.34375 L 24.359375 13.765625 C 22.140625 12.191406 19.023438 11.957031 16.484375 13.191406 L 13.292969 8.46875 C 12.101562 8.980469 9.628906 11.058594 8.667969 12.738281 Z M 15.859375 15.78125 C 18.300781 13.609375 21.867188 13.878906 23.890625 16.15625 C 25.914062 18.429688 25.765625 22.011719 23.324219 24.179688 C 20.878906 26.351562 17.308594 26.078125 15.285156 23.800781 C 13.261719 21.523438 13.414062 17.953125 15.859375 15.78125 Z M 15.859375 15.78125 "/>
</svg>
