<?xml version="1.0" encoding="UTF-8"?>
<svg xmlns="http://www.w3.org/2000/svg" xmlns:xlink="http://www.w3.org/1999/xlink" width="40" height="40" viewBox="0 0 40 40">
<path fill-rule="nonzero" fill="rgb(0%, 0%, 0%)" fill-opacity="1" d="M 9 3.5 C 9 2.671875 8.328125 2 7.5 2 C 6.671875 2 6 2.671875 6 3.5 L 6 11.449219 C 6 12.828125 7.121094 14 8.5 14 C 9.878906 14 11 12.828125 11 11.449219 L 11 5.5 C 11 5.222656 11.222656 5 11.5 5 C 11.777344 5 12 5.222656 12 5.5 L 12 11.53125 C 11.953125 13.425781 10.40625 15 8.5 15 C 6.59375 15 5.042969 13.425781 5 11.53125 L 5 3.5 C 5 2.121094 6.121094 1 7.5 1 C 8.878906 1 10 2.121094 10 3.5 L 10 10.503906 C 10 11.332031 9.328125 12.003906 8.5 12 C 7.671875 12 7 11.328125 7 10.5 L 7 5.5 C 7 5.222656 7.222656 5 7.5 5 C 7.777344 5 8 5.222656 8 5.5 L 8 10.5 C 8 10.777344 8.222656 11 8.5 11 C 8.777344 11 9 10.777344 9 10.5 Z M 9 3.5 "/>
</svg>
