<?xml version="1.0" encoding="UTF-8"?>
<svg xmlns="http://www.w3.org/2000/svg" xmlns:xlink="http://www.w3.org/1999/xlink" width="40" height="40" viewBox="0 0 40 40">
<path fill-rule="nonzero" fill="rgb(0%, 0%, 0%)" fill-opacity="1" d="M 8.15625 12.5 C 8.421875 12.5 8.675781 12.394531 8.863281 12.207031 L 9.386719 9.632812 L 10.5 8.5 L 11.558594 7.460938 L 14.207031 6.859375 C 14.394531 6.671875 14.503906 6.417969 14.503906 6.152344 C 14.503906 5.886719 14.394531 5.632812 14.207031 5.445312 L 10.550781 1.785156 C 10.363281 1.597656 10.109375 1.492188 9.84375 1.492188 C 9.578125 1.492188 9.324219 1.597656 9.136719 1.785156 L 8.613281 4.363281 L 7.5 5.5 L 6.441406 6.535156 L 3.792969 7.136719 C 3.605469 7.320312 3.5 7.578125 3.5 7.839844 C 3.5 8.105469 3.605469 8.359375 3.792969 8.546875 L 7.449219 12.207031 C 7.636719 12.394531 7.890625 12.5 8.15625 12.5 Z M 8.15625 12.5 "/>
<path fill-rule="nonzero" fill="rgb(0%, 0%, 0%)" fill-opacity="1" d="M 9.84375 0.996094 C 9.457031 0.996094 9.070312 1.140625 8.78125 1.4375 C 8.714844 1.503906 8.664062 1.59375 8.644531 1.6875 L 8.152344 4.117188 L 7.144531 5.148438 L 6.191406 6.078125 L 3.683594 6.644531 C 3.589844 6.667969 3.503906 6.710938 3.4375 6.777344 C 2.855469 7.367188 2.851562 8.3125 3.4375 8.902344 L 4.914062 10.378906 L 2.144531 13.144531 C 1.949219 13.339844 1.949219 13.65625 2.144531 13.851562 C 2.238281 13.945312 2.367188 14 2.5 14 C 2.632812 14 2.761719 13.945312 2.855469 13.851562 L 5.621094 11.085938 L 7.097656 12.558594 C 7.375 12.84375 7.757812 13.003906 8.15625 13 C 8.558594 13 8.9375 12.839844 9.21875 12.558594 C 9.289062 12.488281 9.335938 12.398438 9.355469 12.304688 L 9.847656 9.878906 L 10.855469 8.851562 L 11.808594 7.914062 L 14.316406 7.347656 C 14.410156 7.324219 14.492188 7.28125 14.5625 7.214844 C 15.148438 6.632812 15.144531 5.671875 14.5625 5.089844 L 10.902344 1.433594 C 10.621094 1.152344 10.238281 0.996094 9.84375 0.996094 Z M 9.890625 2.019531 C 10.007812 2.015625 10.117188 2.058594 10.195312 2.140625 L 13.855469 5.796875 C 14.035156 5.976562 13.996094 6.230469 13.855469 6.425781 L 11.445312 6.96875 C 11.355469 6.992188 11.273438 7.035156 11.207031 7.101562 L 10.148438 8.140625 C 10.148438 8.144531 10.144531 8.144531 10.144531 8.148438 L 9.027344 9.28125 C 8.960938 9.351562 8.914062 9.4375 8.894531 9.53125 L 8.414062 11.894531 C 8.335938 11.945312 8.25 12.003906 8.15625 12.003906 C 8.023438 12.003906 7.894531 11.949219 7.804688 11.851562 L 4.144531 8.195312 C 3.964844 8.015625 4.003906 7.761719 4.144531 7.566406 L 6.554688 7.023438 C 6.644531 7.003906 6.726562 6.957031 6.789062 6.894531 L 7.851562 5.855469 C 7.851562 5.855469 7.855469 5.851562 7.855469 5.847656 L 8.972656 4.710938 C 9.039062 4.640625 9.085938 4.554688 9.105469 4.460938 L 9.574219 2.136719 C 9.667969 2.070312 9.777344 2.03125 9.894531 2.019531 Z M 9.890625 2.019531 "/>
</svg>
