<?xml version="1.0" encoding="UTF-8"?>
<svg xmlns="http://www.w3.org/2000/svg" xmlns:xlink="http://www.w3.org/1999/xlink" width="16" height="16" viewBox="0 0 16 16">
<path fill-rule="evenodd" fill="rgb(0%, 0%, 0%)" fill-opacity="1" d="M 11 3 L 13.601562 3 C 14 3 14.300781 3.300781 14.300781 3.601562 C 14.300781 3.898438 14 4.199219 13.699219 4.199219 L 13.300781 4.199219 L 13.300781 14 C 13.300781 15.101562 12.398438 16 11.300781 16 L 4.800781 16 C 3.699219 16 2.800781 15.101562 2.800781 14 L 2.800781 4.199219 L 2.398438 4.199219 C 2 4.199219 1.800781 4 1.800781 3.601562 C 1.800781 3.199219 2 3 2.398438 3 L 5 3 L 5 2 C 5 0.898438 5.898438 0 7 0 L 9 0 C 10.101562 0 11 0.898438 11 2 Z M 6.898438 1.199219 L 6.300781 1.800781 L 6.300781 3 L 9.800781 3 L 9.800781 1.800781 L 9.199219 1.199219 Z M 11.398438 14.699219 L 12 14.101562 L 12 4.199219 L 4 4.199219 L 4 14.101562 L 4.601562 14.699219 Z M 7 12.398438 C 7 12.699219 6.699219 13 6.398438 13 C 6.101562 13 5.800781 12.699219 5.800781 12.398438 L 5.800781 7.601562 C 5.699219 7.300781 6 7 6.398438 7 C 6.800781 7 7 7.300781 7 7.601562 Z M 10.199219 12.398438 C 10.199219 12.699219 9.898438 13 9.601562 13 C 9.300781 13 9 12.699219 9 12.398438 L 9 7.601562 C 9 7.300781 9.300781 7 9.601562 7 C 9.898438 7 10.199219 7.300781 10.199219 7.601562 Z M 10.199219 12.398438 "/>
</svg>
