<?xml version="1.0" encoding="UTF-8"?>
<svg xmlns="http://www.w3.org/2000/svg" xmlns:xlink="http://www.w3.org/1999/xlink" width="16" height="16" viewBox="0 0 16 16">
<path fill-rule="nonzero" fill="rgb(0%, 0%, 0%)" fill-opacity="1" d="M 5 8.351562 L 10.464844 13.816406 C 10.585938 13.929688 10.742188 13.992188 10.90625 13.988281 C 11.070312 13.988281 11.222656 13.921875 11.339844 13.804688 C 11.453125 13.691406 11.519531 13.535156 11.523438 13.371094 C 11.523438 13.207031 11.460938 13.050781 11.351562 12.933594 L 6.414062 8 L 11.347656 3.066406 C 11.460938 2.949219 11.523438 2.792969 11.519531 2.628906 C 11.519531 2.464844 11.453125 2.308594 11.335938 2.191406 C 11.222656 2.078125 11.066406 2.011719 10.902344 2.011719 C 10.738281 2.007812 10.582031 2.070312 10.464844 2.183594 L 5 7.648438 Z M 5 8.351562 "/>
</svg>
