<?xml version="1.0" encoding="UTF-8"?>
<svg xmlns="http://www.w3.org/2000/svg" xmlns:xlink="http://www.w3.org/1999/xlink" width="16" height="16" viewBox="0 0 16 16">
<path fill-rule="nonzero" fill="rgb(0%, 0%, 0%)" fill-opacity="1" d="M 11 8.351562 L 5.535156 13.816406 C 5.414062 13.929688 5.257812 13.992188 5.09375 13.988281 C 4.929688 13.988281 4.777344 13.921875 4.660156 13.804688 C 4.546875 13.691406 4.480469 13.535156 4.476562 13.371094 C 4.476562 13.207031 4.539062 13.050781 4.648438 12.933594 L 9.585938 7.996094 L 4.652344 3.066406 C 4.539062 2.949219 4.476562 2.792969 4.480469 2.628906 C 4.480469 2.464844 4.546875 2.308594 4.664062 2.191406 C 4.777344 2.078125 4.933594 2.011719 5.097656 2.011719 C 5.261719 2.007812 5.417969 2.070312 5.535156 2.183594 L 11 7.648438 Z M 11 8.351562 "/>
</svg>
