<?xml version="1.0" encoding="UTF-8"?>
<svg xmlns="http://www.w3.org/2000/svg" xmlns:xlink="http://www.w3.org/1999/xlink" width="24" height="24" viewBox="0 0 24 24">
<path fill-rule="evenodd" fill="rgb(0%, 0%, 0%)" fill-opacity="1" d="M 16.96875 10.058594 C 17.261719 9.765625 17.738281 9.765625 18.03125 10.058594 C 18.324219 10.351562 18.324219 10.828125 18.03125 11.121094 L 12.148438 17 L 11.351562 17 L 5.46875 11.121094 C 5.175781 10.828125 5.175781 10.351562 5.46875 10.058594 C 5.761719 9.765625 6.238281 9.765625 6.53125 10.058594 L 11 14.527344 L 11 2.75 C 11 2.335938 11.335938 2 11.75 2 C 12.164062 2 12.5 2.335938 12.5 2.75 L 12.5 14.527344 Z M 4.980469 19.699219 L 5.78125 20.5 L 17.71875 20.5 L 18.515625 19.699219 L 18.515625 17.75 C 18.515625 17.335938 18.851562 17 19.265625 17 C 19.679688 17 20.015625 17.335938 20.015625 17.75 L 20.015625 19.5 C 20.015625 20.882812 18.898438 22 17.515625 22 L 5.980469 22 C 4.601562 22 3.480469 20.882812 3.480469 19.5 L 3.480469 17.75 C 3.480469 17.335938 3.816406 17 4.230469 17 C 4.644531 17 4.980469 17.335938 4.980469 17.75 Z M 4.980469 19.699219 "/>
</svg>
