<?xml version="1.0" encoding="UTF-8"?>
<svg xmlns="http://www.w3.org/2000/svg" xmlns:xlink="http://www.w3.org/1999/xlink" width="16" height="16" viewBox="0 0 16 16">
<path fill-rule="nonzero" fill="rgb(0%, 0%, 0%)" fill-opacity="1" d="M 3 3.78125 C 3 2.761719 2.132812 2.117188 1.25 2.015625 L 1.25 2 L 1 2 L 1 3.5 C 1.179688 3.5 1.324219 3.5625 1.40625 3.628906 C 1.488281 3.699219 1.5 3.753906 1.5 3.78125 L 1.5 11.71875 C 1.5 11.746094 1.488281 11.800781 1.40625 11.871094 C 1.324219 11.9375 1.179688 12 1 12 L 1 13.5 L 1.25 13.5 L 1.25 13.484375 C 2.132812 13.382812 3 12.738281 3 11.71875 Z M 10.5 4 C 10.5 3.722656 10.277344 3.5 10 3.5 L 6.5 3.5 C 6.222656 3.5 6 3.722656 6 4 L 6 11.5 C 6 11.777344 6.222656 12 6.5 12 L 10 12 C 10.277344 12 10.5 11.777344 10.5 11.5 Z M 10 2 C 11.105469 2 12 2.894531 12 4 L 12 11.5 C 12 12.605469 11.105469 13.5 10 13.5 L 6.5 13.5 C 5.394531 13.5 4.5 12.605469 4.5 11.5 L 4.5 4 C 4.5 2.894531 5.394531 2 6.5 2 Z M 15.5 2 L 15.25 2 L 15.25 2.015625 C 14.367188 2.117188 13.5 2.761719 13.5 3.78125 L 13.5 11.71875 C 13.5 12.738281 14.367188 13.382812 15.25 13.484375 L 15.25 13.5 L 15.5 13.5 L 15.5 12 C 15.320312 12 15.175781 11.9375 15.09375 11.871094 C 15.011719 11.800781 15 11.746094 15 11.71875 L 15 3.78125 C 15 3.753906 15.011719 3.699219 15.09375 3.628906 C 15.175781 3.5625 15.320312 3.5 15.5 3.5 Z M 15.5 2 "/>
</svg>
