<?xml version="1.0" encoding="UTF-8"?>
<svg xmlns="http://www.w3.org/2000/svg" xmlns:xlink="http://www.w3.org/1999/xlink" width="16" height="16" viewBox="0 0 16 16">
<path fill-rule="nonzero" fill="rgb(0%, 0%, 0%)" fill-opacity="1" d="M 3.410156 4.835938 L 4.769531 6.195312 C 5.066406 6.492188 4.855469 7 4.4375 7 L 0.863281 7 C 0.601562 7 0.390625 6.789062 0.390625 6.527344 L 0.390625 2.953125 C 0.390625 2.535156 0.898438 2.324219 1.195312 2.621094 L 2.328125 3.753906 C 3.679688 1.789062 5.941406 0.5 8.5 0.5 C 12.636719 0.5 16 3.863281 16 8 C 16 12.136719 12.636719 15.5 8.5 15.5 C 4.703125 15.5 1.566406 12.664062 1.074219 9 L 2.589844 9 C 3.066406 11.832031 5.53125 14 8.5 14 C 11.808594 14 14.5 11.308594 14.5 8 C 14.5 4.691406 11.808594 2 8.5 2 C 6.351562 2 4.46875 3.136719 3.410156 4.835938 Z M 3.410156 4.835938 "/>
</svg>
