<?xml version="1.0" encoding="UTF-8"?>
<svg xmlns="http://www.w3.org/2000/svg" xmlns:xlink="http://www.w3.org/1999/xlink" width="16" height="16" viewBox="0 0 16 16">
<path fill-rule="nonzero" fill="rgb(0%, 0%, 0%)" fill-opacity="1" d="M 3.5 2 C 3.5 1.722656 3.722656 1.5 4 1.5 L 12 1.5 C 12.277344 1.5 12.5 1.722656 12.5 2 L 12.5 14 C 12.5 14.277344 12.277344 14.5 12 14.5 L 4 14.5 C 3.722656 14.5 3.5 14.277344 3.5 14 Z M 4 0 C 2.894531 0 2 0.894531 2 2 L 2 14 C 2 15.105469 2.894531 16 4 16 L 12 16 C 13.105469 16 14 15.105469 14 14 L 14 2 C 14 0.894531 13.105469 0 12 0 Z M 5.894531 6 L 7.25 6 L 7.25 10 L 5.894531 10 C 5.542969 10 5.367188 10.421875 5.613281 10.671875 L 7.722656 12.777344 C 7.875 12.929688 8.121094 12.929688 8.277344 12.777344 L 10.382812 10.667969 C 10.628906 10.421875 10.453125 10 10.105469 10 L 8.75 10 L 8.75 6 L 10.105469 6 C 10.457031 6 10.632812 5.578125 10.382812 5.332031 L 8.277344 3.222656 C 8.121094 3.070312 7.875 3.070312 7.722656 3.222656 L 5.613281 5.328125 C 5.367188 5.578125 5.542969 6 5.894531 6 Z M 5.894531 6 "/>
</svg>
