<?xml version="1.0" encoding="UTF-8"?>
<svg xmlns="http://www.w3.org/2000/svg" xmlns:xlink="http://www.w3.org/1999/xlink" width="16" height="16" viewBox="0 0 16 16">
<path fill-rule="nonzero" fill="rgb(0%, 0%, 0%)" fill-opacity="1" d="M 1.5 4 C 1.5 3.722656 1.722656 3.5 2 3.5 L 7.25 3.5 L 7.25 13 L 2 13 C 1.722656 13 1.5 12.777344 1.5 12.5 Z M 8.75 13 L 8.75 3.5 L 14 3.5 C 14.277344 3.5 14.5 3.722656 14.5 4 L 14.5 12.5 C 14.5 12.777344 14.277344 13 14 13 Z M 2 2 C 0.894531 2 0 2.894531 0 4 L 0 12.5 C 0 13.605469 0.894531 14.5 2 14.5 L 14 14.5 C 15.105469 14.5 16 13.605469 16 12.5 L 16 4 C 16 2.894531 15.105469 2 14 2 Z M 4.75 5 L 3 5 L 3 6.5 L 4 6.5 L 4 11.5 L 5.5 11.5 L 5.5 5.75 C 5.5 5.335938 5.164062 5 4.75 5 Z M 10 6.5 L 11.5 6.5 L 11.5 7.285156 L 10.414062 7.828125 C 10.160156 7.957031 10 8.214844 10 8.5 L 10 10.75 C 10 11.164062 10.335938 11.5 10.75 11.5 L 13 11.5 L 13 10 L 11.5 10 L 11.5 8.964844 L 12.585938 8.421875 C 12.839844 8.292969 13 8.035156 13 7.75 L 13 5.75 C 13 5.335938 12.664062 5 12.25 5 L 10 5 Z M 10 6.5 "/>
</svg>
