<?xml version="1.0" encoding="UTF-8"?>
<svg xmlns="http://www.w3.org/2000/svg" xmlns:xlink="http://www.w3.org/1999/xlink" width="16" height="16" viewBox="0 0 16 16">
<path fill-rule="nonzero" fill="rgb(0%, 0%, 0%)" fill-opacity="1" d="M 0.371094 2.929688 C -0.203125 1.335938 1.335938 -0.203125 2.929688 0.371094 L 2.933594 0.371094 L 12.070312 3.683594 C 12.070312 3.683594 12.070312 3.679688 12.070312 3.683594 C 13.445312 4.175781 13.847656 5.9375 12.808594 6.976562 L 11.808594 7.976562 L 14.6875 10.855469 C 15.46875 11.640625 15.46875 12.90625 14.6875 13.6875 L 13.648438 14.726562 C 12.863281 15.511719 11.601562 15.511719 10.816406 14.726562 L 7.9375 11.847656 L 6.976562 12.808594 C 5.9375 13.847656 4.179688 13.445312 3.683594 12.070312 C 3.683594 12.070312 3.683594 12.074219 3.683594 12.070312 Z M 1.78125 2.421875 L 5.09375 11.5625 C 5.21875 11.90625 5.65625 12.007812 5.917969 11.746094 L 7.9375 9.726562 L 11.878906 13.667969 C 12.074219 13.863281 12.390625 13.863281 12.585938 13.667969 L 13.625 12.625 C 13.824219 12.429688 13.824219 12.113281 13.625 11.917969 L 9.6875 7.976562 L 11.746094 5.917969 C 12.007812 5.65625 11.90625 5.21875 11.5625 5.09375 L 2.421875 1.78125 C 2.019531 1.636719 1.636719 2.019531 1.78125 2.421875 Z M 1.78125 2.421875 "/>
</svg>
