<?xml version="1.0" encoding="UTF-8"?>
<svg xmlns="http://www.w3.org/2000/svg" xmlns:xlink="http://www.w3.org/1999/xlink" width="16" height="16" viewBox="0 0 16 16">
<path fill-rule="nonzero" fill="rgb(0%, 0%, 0%)" fill-opacity="1" d="M 2.5 1 C 2.5 1.277344 2.722656 1.5 3 1.5 L 5 1.5 C 5.277344 1.5 5.5 1.277344 5.5 1 L 7 1 C 7 2.105469 6.105469 3 5 3 L 3 3 C 1.894531 3 1 2.105469 1 1 Z M 2.5 6 C 2.5 5.722656 2.722656 5.5 3 5.5 L 5 5.5 C 5.277344 5.5 5.5 5.722656 5.5 6 L 5.5 10 C 5.5 10.277344 5.277344 10.5 5 10.5 L 3 10.5 C 2.722656 10.5 2.5 10.277344 2.5 10 Z M 3 4 C 1.894531 4 1 4.894531 1 6 L 1 10 C 1 11.105469 1.894531 12 3 12 L 5 12 C 6.105469 12 7 11.105469 7 10 L 7 6 C 7 4.894531 6.105469 4 5 4 Z M 10 6 C 10 5.722656 10.222656 5.5 10.5 5.5 L 12.5 5.5 C 12.777344 5.5 13 5.722656 13 6 L 13 10 C 13 10.277344 12.777344 10.5 12.5 10.5 L 10.5 10.5 C 10.222656 10.5 10 10.277344 10 10 Z M 10.5 4 C 9.394531 4 8.5 4.894531 8.5 6 L 8.5 10 C 8.5 11.105469 9.394531 12 10.5 12 L 12.5 12 C 13.605469 12 14.5 11.105469 14.5 10 L 14.5 6 C 14.5 4.894531 13.605469 4 12.5 4 Z M 3 14.5 C 2.722656 14.5 2.5 14.722656 2.5 15 L 1 15 C 1 13.894531 1.894531 13 3 13 L 5 13 C 6.105469 13 7 13.894531 7 15 L 5.5 15 C 5.5 14.722656 5.277344 14.5 5 14.5 Z M 10 15 C 10 14.722656 10.222656 14.5 10.5 14.5 L 12.5 14.5 C 12.777344 14.5 13 14.722656 13 15 L 14.5 15 C 14.5 13.894531 13.605469 13 12.5 13 L 10.5 13 C 9.394531 13 8.5 13.894531 8.5 15 Z M 10.5 1.5 C 10.222656 1.5 10 1.277344 10 1 L 8.5 1 C 8.5 2.105469 9.394531 3 10.5 3 L 12.5 3 C 13.605469 3 14.5 2.105469 14.5 1 L 13 1 C 13 1.277344 12.777344 1.5 12.5 1.5 Z M 10.5 1.5 "/>
</svg>
