<?xml version="1.0" encoding="UTF-8"?>
<svg xmlns="http://www.w3.org/2000/svg" xmlns:xlink="http://www.w3.org/1999/xlink" width="16" height="16" viewBox="0 0 16 16">
<path fill-rule="nonzero" fill="rgb(0%, 0%, 0%)" fill-opacity="1" d="M 7.75 2.125 C 7.75 1.78125 8.03125 1.5 8.375 1.5 C 8.71875 1.5 9 1.78125 9 2.125 L 9 8 L 10.5 8 L 10.5 3.125 C 10.5 2.78125 10.78125 2.5 11.125 2.5 C 11.46875 2.5 11.75 2.78125 11.75 3.125 L 11.75 8 L 13.25 8 L 13.25 4.625 C 13.25 4.28125 13.53125 4 13.875 4 C 14.21875 4 14.5 4.28125 14.5 4.625 L 14.5 12.019531 L 13.378906 13.664062 C 13.296875 13.789062 13.25 13.933594 13.25 14.085938 L 13.25 16 L 14.75 16 L 14.75 14.316406 L 15.871094 12.671875 C 15.953125 12.546875 16 12.402344 16 12.25 L 16 4.625 C 16 3.453125 15.046875 2.5 13.875 2.5 C 13.632812 2.5 13.402344 2.539062 13.1875 2.613281 C 12.960938 1.6875 12.121094 1 11.125 1 C 10.824219 1 10.535156 1.0625 10.277344 1.175781 C 9.929688 0.480469 9.207031 0 8.375 0 C 7.542969 0 6.820312 0.480469 6.472656 1.175781 C 6.214844 1.0625 5.925781 1 5.625 1 C 4.453125 1 3.5 1.953125 3.5 3.125 L 3.5 7.253906 C 2.664062 6.542969 1.410156 6.582031 0.621094 7.371094 C -0.207031 8.199219 -0.207031 9.546875 0.621094 10.375 L 5.5 15.25 L 5.5 16 L 7 16 L 7 14.9375 C 7 14.738281 6.917969 14.550781 6.777344 14.410156 L 1.683594 9.316406 C 1.4375 9.070312 1.4375 8.675781 1.683594 8.429688 C 1.925781 8.1875 2.324219 8.1875 2.566406 8.429688 L 3.71875 9.585938 C 3.933594 9.800781 4.257812 9.863281 4.535156 9.746094 C 4.816406 9.628906 5 9.355469 5 9.054688 L 5 3.125 C 5 2.78125 5.28125 2.5 5.625 2.5 C 5.96875 2.5 6.25 2.777344 6.25 3.125 L 6.25 8 L 7.75 8 Z M 7.75 2.125 "/>
</svg>
