<?xml version="1.0" encoding="UTF-8"?>
<svg xmlns="http://www.w3.org/2000/svg" xmlns:xlink="http://www.w3.org/1999/xlink" width="16" height="16" viewBox="0 0 16 16">
<path fill-rule="nonzero" fill="rgb(0%, 0%, 0%)" fill-opacity="1" d="M 2 1 L 2 1.25 L 2.015625 1.25 C 2.117188 2.132812 2.761719 3 3.78125 3 L 11.71875 3 C 12.738281 3 13.382812 2.132812 13.484375 1.25 L 13.5 1.25 L 13.5 1 L 12 1 C 12 1.179688 11.9375 1.324219 11.871094 1.40625 C 11.800781 1.488281 11.746094 1.5 11.71875 1.5 L 3.78125 1.5 C 3.753906 1.5 3.699219 1.488281 3.628906 1.40625 C 3.5625 1.324219 3.5 1.179688 3.5 1 Z M 4 6 C 3.722656 6 3.5 6.222656 3.5 6.5 L 3.5 10 C 3.5 10.277344 3.722656 10.5 4 10.5 L 11.5 10.5 C 11.777344 10.5 12 10.277344 12 10 L 12 6.5 C 12 6.222656 11.777344 6 11.5 6 Z M 2 6.5 C 2 5.394531 2.894531 4.5 4 4.5 L 11.5 4.5 C 12.605469 4.5 13.5 5.394531 13.5 6.5 L 13.5 10 C 13.5 11.105469 12.605469 12 11.5 12 L 4 12 C 2.894531 12 2 11.105469 2 10 Z M 3.78125 13.5 C 2.761719 13.5 2.117188 14.367188 2.015625 15.25 L 2 15.25 L 2 15.5 L 3.5 15.5 C 3.5 15.320312 3.5625 15.175781 3.628906 15.09375 C 3.699219 15.011719 3.753906 15 3.78125 15 L 11.71875 15 C 11.746094 15 11.800781 15.011719 11.871094 15.09375 C 11.9375 15.175781 12 15.320312 12 15.5 L 13.5 15.5 L 13.5 15.25 L 13.484375 15.25 C 13.382812 14.367188 12.738281 13.5 11.71875 13.5 Z M 3.78125 13.5 "/>
</svg>
