<?xml version="1.0" encoding="UTF-8"?>
<svg xmlns="http://www.w3.org/2000/svg" xmlns:xlink="http://www.w3.org/1999/xlink" width="16" height="16" viewBox="0 0 16 16">
<path fill-rule="nonzero" fill="rgb(0%, 0%, 0%)" fill-opacity="1" d="M 12.589844 4.835938 L 11.230469 6.195312 C 10.933594 6.492188 11.144531 7 11.5625 7 L 15.136719 7 C 15.398438 7 15.609375 6.789062 15.609375 6.527344 L 15.609375 2.953125 C 15.609375 2.535156 15.101562 2.324219 14.804688 2.621094 L 13.671875 3.753906 C 12.320312 1.789062 10.058594 0.5 7.5 0.5 C 3.363281 0.5 0 3.863281 0 8 C 0 12.136719 3.363281 15.5 7.5 15.5 C 11.296875 15.5 14.433594 12.664062 14.925781 9 L 13.410156 9 C 12.933594 11.832031 10.46875 14 7.5 14 C 4.191406 14 1.5 11.308594 1.5 8 C 1.5 4.691406 4.191406 2 7.5 2 C 9.648438 2 11.53125 3.136719 12.589844 4.835938 Z M 12.589844 4.835938 "/>
</svg>
