<?xml version="1.0" encoding="UTF-8"?>
<svg xmlns="http://www.w3.org/2000/svg" xmlns:xlink="http://www.w3.org/1999/xlink" width="16" height="16" viewBox="0 0 16 16">
<path fill-rule="evenodd" fill="rgb(0%, 0%, 0%)" fill-opacity="1" d="M 2 3.5 C 1.722656 3.5 1.5 3.722656 1.5 4 L 1.5 12.5 C 1.5 12.777344 1.722656 13 2 13 L 7.25 13 L 7.25 3.5 Z M 14 13 L 8.75 13 L 8.75 3.5 L 14 3.5 C 14.277344 3.5 14.5 3.722656 14.5 4 L 14.5 12.5 C 14.5 12.777344 14.277344 13 14 13 Z M 0 4 C 0 2.894531 0.894531 2 2 2 L 14 2 C 15.105469 2 16 2.894531 16 4 L 16 12.5 C 16 13.605469 15.105469 14.5 14 14.5 L 2 14.5 C 0.894531 14.5 0 13.605469 0 12.5 Z M 10 6.5 L 11.5 6.5 L 11.5 7.5 L 10 7.5 L 10 9 L 11.5 9 L 11.5 10 L 10 10 L 10 11.5 L 12.25 11.5 C 12.664062 11.5 13 11.164062 13 10.75 L 13 5.75 C 13 5.335938 12.664062 5 12.25 5 L 10 5 Z M 4.5 6.5 L 3 6.5 L 3 5 L 5.25 5 C 5.664062 5 6 5.335938 6 5.75 L 6 7.75 C 6 8.035156 5.839844 8.292969 5.585938 8.421875 L 4.5 8.964844 L 4.5 10 L 6 10 L 6 11.5 L 3.75 11.5 C 3.335938 11.5 3 11.164062 3 10.75 L 3 8.5 C 3 8.214844 3.160156 7.957031 3.414062 7.828125 L 4.5 7.285156 Z M 4.5 6.5 "/>
</svg>
