<?xml version="1.0" encoding="UTF-8"?>
<svg xmlns="http://www.w3.org/2000/svg" xmlns:xlink="http://www.w3.org/1999/xlink" width="16" height="16" viewBox="0 0 16 16">
<path fill-rule="nonzero" fill="rgb(0%, 0%, 0%)" fill-opacity="1" d="M 8 1.5 C 4.410156 1.5 1.5 4.410156 1.5 8 C 1.5 11.589844 4.410156 14.5 8 14.5 C 11.589844 14.5 14.5 11.589844 14.5 8 C 14.5 4.410156 11.589844 1.5 8 1.5 Z M 0 8 C 0 3.582031 3.582031 0 8 0 C 12.417969 0 16 3.582031 16 8 C 16 12.417969 12.417969 16 8 16 C 3.582031 16 0 12.417969 0 8 Z M 8.75 4 L 8.75 5.5 L 7.25 5.5 L 7.25 4 Z M 8.75 12 L 8.75 7 L 7.25 7 L 7.25 12 Z M 8.75 12 "/>
</svg>
