<?xml version="1.0" encoding="UTF-8"?>
<svg xmlns="http://www.w3.org/2000/svg" xmlns:xlink="http://www.w3.org/1999/xlink" width="16" height="16" viewBox="0 0 16 16">
<path fill-rule="nonzero" fill="rgb(0%, 0%, 0%)" fill-opacity="1" d="M 4 1.5 C 3.722656 1.5 3.5 1.722656 3.5 2 L 3.5 14 C 3.5 14.277344 3.722656 14.5 4 14.5 L 12 14.5 C 12.277344 14.5 12.5 14.277344 12.5 14 L 12.5 2 C 12.5 1.722656 12.277344 1.5 12 1.5 Z M 2 2 C 2 0.894531 2.894531 0 4 0 L 12 0 C 13.105469 0 14 0.894531 14 2 L 14 14 C 14 15.105469 13.105469 16 12 16 L 4 16 C 2.894531 16 2 15.105469 2 14 Z M 2 2 "/>
</svg>
