<?xml version="1.0" encoding="UTF-8"?>
<svg xmlns="http://www.w3.org/2000/svg" xmlns:xlink="http://www.w3.org/1999/xlink" width="16" height="16" viewBox="0 0 16 16">
<path fill-rule="evenodd" fill="rgb(0%, 0%, 0%)" fill-opacity="1" d="M 3 2.5 C 2.722656 2.5 2.5 2.722656 2.5 3 L 2.5 4.75 L 1 4.75 L 1 3 C 1 1.894531 1.894531 1 3 1 L 13 1 C 14.105469 1 15 1.894531 15 3 L 15 4.75 L 13.5 4.75 L 13.5 3 C 13.5 2.722656 13.277344 2.5 13 2.5 Z M 3 2.5 "/>
<path fill-rule="evenodd" fill="rgb(0%, 0%, 0%)" fill-opacity="1" d="M 11 15 L 5 15 L 5 13.5 L 11 13.5 Z M 11 15 "/>
<path fill-rule="evenodd" fill="rgb(0%, 0%, 0%)" fill-opacity="1" d="M 8.75 2.25 L 8.75 14.25 L 7.25 14.25 L 7.25 2.25 Z M 8.75 2.25 "/>
</svg>
