<?xml version="1.0" encoding="UTF-8"?>
<svg xmlns="http://www.w3.org/2000/svg" xmlns:xlink="http://www.w3.org/1999/xlink" width="16" height="16" viewBox="0 0 16 16">
<path fill-rule="nonzero" fill="rgb(0%, 0%, 0%)" fill-opacity="1" d="M 10.804688 4.75 L 10.804688 6.023438 C 10.804688 6.394531 10.355469 6.578125 10.097656 6.316406 L 7.878906 4.097656 C 7.714844 3.9375 7.714844 3.675781 7.878906 3.511719 L 10.097656 1.292969 C 10.355469 1.03125 10.804688 1.21875 10.804688 1.585938 L 10.804688 3.25 L 15 3.25 L 15 4.75 Z M 8 1.25 L 3 1.25 L 3 2.75 L 6.5 2.75 Z M 6.5 5.25 L 3 5.25 L 3 6.75 L 8 6.75 Z M 3 13.25 L 15 13.25 L 15 14.75 L 3 14.75 Z M 6 9.25 L 15 9.25 L 15 10.75 L 6 10.75 Z M 1.5 5.25 L 0 5.25 L 0 6.75 L 1.5 6.75 Z M 0 13.25 L 1.5 13.25 L 1.5 14.75 L 0 14.75 Z M 1.5 1.25 L 0 1.25 L 0 2.75 L 1.5 2.75 Z M 3 9.25 L 4.5 9.25 L 4.5 10.75 L 3 10.75 Z M 3 9.25 "/>
</svg>
