<?xml version="1.0" encoding="UTF-8"?>
<svg xmlns="http://www.w3.org/2000/svg" xmlns:xlink="http://www.w3.org/1999/xlink" width="16" height="16" viewBox="0 0 16 16">
<path fill-rule="nonzero" fill="rgb(0%, 0%, 0%)" fill-opacity="1" d="M 8.351562 5 L 13.816406 10.464844 C 13.875 10.523438 13.921875 10.59375 13.953125 10.667969 C 13.984375 10.746094 14 10.824219 14 10.90625 C 14 10.992188 13.984375 11.070312 13.953125 11.148438 C 13.921875 11.222656 13.875 11.292969 13.816406 11.351562 C 13.699219 11.46875 13.539062 11.53125 13.375 11.53125 C 13.207031 11.53125 13.050781 11.46875 12.933594 11.351562 L 8 6.414062 L 3.066406 11.347656 C 2.949219 11.460938 2.789062 11.523438 2.628906 11.519531 C 2.464844 11.519531 2.308594 11.453125 2.191406 11.335938 C 2.078125 11.222656 2.011719 11.066406 2.011719 10.902344 C 2.007812 10.738281 2.070312 10.582031 2.183594 10.464844 L 7.648438 5 Z M 8.351562 5 "/>
</svg>
