<?xml version="1.0" encoding="UTF-8"?>
<svg xmlns="http://www.w3.org/2000/svg" xmlns:xlink="http://www.w3.org/1999/xlink" width="16" height="16" viewBox="0 0 16 16">
<path fill-rule="nonzero" fill="rgb(0%, 0%, 0%)" fill-opacity="1" d="M 3.5 3.75 C 3.5 1.679688 5.179688 0 7.25 0 C 9.320312 0 11 1.679688 11 3.75 L 11 10.25 C 11 11.492188 9.992188 12.5 8.75 12.5 C 7.507812 12.5 6.5 11.492188 6.5 10.25 L 6.5 3.5 L 8 3.5 L 8 10.25 C 8 10.664062 8.335938 11 8.75 11 C 9.164062 11 9.5 10.664062 9.5 10.25 L 9.5 3.75 C 9.5 2.507812 8.492188 1.5 7.25 1.5 C 6.007812 1.5 5 2.507812 5 3.75 L 5 10.75 C 5 12.820312 6.679688 14.5 8.75 14.5 C 10.820312 14.5 12.5 12.820312 12.5 10.75 L 12.5 3.5 L 14 3.5 L 14 10.75 C 14 13.648438 11.648438 16 8.75 16 C 5.851562 16 3.5 13.648438 3.5 10.75 Z M 3.5 3.75 "/>
</svg>
