<?xml version="1.0" encoding="UTF-8"?>
<svg xmlns="http://www.w3.org/2000/svg" xmlns:xlink="http://www.w3.org/1999/xlink" width="16" height="16" viewBox="0 0 16 16">
<path fill-rule="nonzero" fill="rgb(0%, 0%, 0%)" fill-opacity="1" d="M 3 1.25 L 15 1.25 L 15 2.75 L 3 2.75 Z M 15 5.25 L 3 5.25 L 3 6.75 L 15 6.75 Z M 15 13.25 L 3 13.25 L 3 14.75 L 15 14.75 Z M 15 9.25 L 6 9.25 L 6 10.75 L 15 10.75 Z M 0 5.25 L 1.5 5.25 L 1.5 6.75 L 0 6.75 Z M 1.5 13.25 L 0 13.25 L 0 14.75 L 1.5 14.75 Z M 0 1.25 L 1.5 1.25 L 1.5 2.75 L 0 2.75 Z M 4.5 9.25 L 3 9.25 L 3 10.75 L 4.5 10.75 Z M 4.5 9.25 "/>
</svg>
