<?xml version="1.0" encoding="UTF-8"?>
<svg xmlns="http://www.w3.org/2000/svg" xmlns:xlink="http://www.w3.org/1999/xlink" width="16" height="16" viewBox="0 0 16 16">
<path fill-rule="nonzero" fill="rgb(0%, 0%, 0%)" fill-opacity="1" d="M 3.5 2 C 3.5 1.722656 3.722656 1.5 4 1.5 L 5.25 1.5 C 5.527344 1.5 5.75 1.722656 5.75 2 L 5.75 5.25 C 5.75 5.527344 5.527344 5.75 5.25 5.75 L 4 5.75 C 3.722656 5.75 3.5 5.527344 3.5 5.25 Z M 4 0 C 2.894531 0 2 0.894531 2 2 L 2 5.25 C 2 6.355469 2.894531 7.25 4 7.25 L 5.25 7.25 C 6.355469 7.25 7.25 6.355469 7.25 5.25 L 7.25 2 C 7.25 0.894531 6.355469 0 5.25 0 Z M 3.5 10.75 C 3.5 10.472656 3.722656 10.25 4 10.25 L 5.25 10.25 C 5.527344 10.25 5.75 10.472656 5.75 10.75 L 5.75 14 C 5.75 14.277344 5.527344 14.5 5.25 14.5 L 4 14.5 C 3.722656 14.5 3.5 14.277344 3.5 14 Z M 4 8.75 C 2.894531 8.75 2 9.644531 2 10.75 L 2 14 C 2 15.105469 2.894531 16 4 16 L 5.25 16 C 6.355469 16 7.25 15.105469 7.25 14 L 7.25 10.75 C 7.25 9.644531 6.355469 8.75 5.25 8.75 Z M 10.75 1.5 C 10.472656 1.5 10.25 1.722656 10.25 2 L 10.25 5.25 C 10.25 5.527344 10.472656 5.75 10.75 5.75 L 12 5.75 C 12.277344 5.75 12.5 5.527344 12.5 5.25 L 12.5 2 C 12.5 1.722656 12.277344 1.5 12 1.5 Z M 8.75 2 C 8.75 0.894531 9.644531 0 10.75 0 L 12 0 C 13.105469 0 14 0.894531 14 2 L 14 5.25 C 14 6.355469 13.105469 7.25 12 7.25 L 10.75 7.25 C 9.644531 7.25 8.75 6.355469 8.75 5.25 Z M 10.25 10.75 C 10.25 10.472656 10.472656 10.25 10.75 10.25 L 12 10.25 C 12.277344 10.25 12.5 10.472656 12.5 10.75 L 12.5 14 C 12.5 14.277344 12.277344 14.5 12 14.5 L 10.75 14.5 C 10.472656 14.5 10.25 14.277344 10.25 14 Z M 10.75 8.75 C 9.644531 8.75 8.75 9.644531 8.75 10.75 L 8.75 14 C 8.75 15.105469 9.644531 16 10.75 16 L 12 16 C 13.105469 16 14 15.105469 14 14 L 14 10.75 C 14 9.644531 13.105469 8.75 12 8.75 Z M 10.75 8.75 "/>
</svg>
