<?xml version="1.0" encoding="UTF-8"?>
<svg xmlns="http://www.w3.org/2000/svg" xmlns:xlink="http://www.w3.org/1999/xlink" width="16" height="17" viewBox="0 0 16 17">
<path fill-rule="evenodd" fill="rgb(0%, 0%, 0%)" fill-opacity="1" d="M 7.109375 11.660156 C 7.25 11.800781 7.4375 11.878906 7.640625 11.878906 C 7.839844 11.878906 8.027344 11.800781 8.167969 11.660156 L 14.917969 4.910156 C 15.269531 4.570312 15.460938 4.109375 15.460938 3.621094 C 15.460938 3.128906 15.269531 2.671875 14.917969 2.328125 L 13.128906 0.539062 C 12.789062 0.191406 12.328125 0 11.839844 0 C 11.347656 0 10.890625 0.199219 10.550781 0.539062 L 3.800781 7.289062 C 3.507812 7.578125 3.507812 8.058594 3.800781 8.351562 L 4.390625 8.941406 L 1.410156 11.929688 L 5.648438 11.929688 L 6.515625 11.066406 Z M 7.640625 10.070312 L 5.390625 7.820312 L 5.390625 7.808594 L 7.863281 5.335938 L 10.121094 7.589844 Z M 11.179688 6.527344 L 13.859375 3.851562 C 13.988281 3.71875 13.988281 3.519531 13.859375 3.390625 L 12.070312 1.601562 C 11.988281 1.519531 11.890625 1.5 11.839844 1.5 C 11.839844 1.5 11.6875 1.511719 11.609375 1.589844 L 8.925781 4.273438 Z M 11.179688 6.527344 "/>
<path fill-rule="nonzero" fill="rgb(0%, 0%, 0%)" fill-opacity="1" d="M 0.410156 14 L 15.410156 14 L 15.410156 16 L 0.410156 16 Z M 0.410156 14 "/>
</svg>
