<?xml version="1.0" encoding="UTF-8"?>
<svg xmlns="http://www.w3.org/2000/svg" xmlns:xlink="http://www.w3.org/1999/xlink" width="16" height="16" viewBox="0 0 16 16">
<path fill-rule="nonzero" fill="rgb(0%, 0%, 0%)" fill-opacity="1" d="M 2 3.5 C 1.722656 3.5 1.5 3.722656 1.5 4 L 1.5 12 C 1.5 12.277344 1.722656 12.5 2 12.5 L 14 12.5 C 14.277344 12.5 14.5 12.277344 14.5 12 L 14.5 4 C 14.5 3.722656 14.277344 3.5 14 3.5 Z M 0 4 C 0 2.894531 0.894531 2 2 2 L 14 2 C 15.105469 2 16 2.894531 16 4 L 16 12 C 16 13.105469 15.105469 14 14 14 L 2 14 C 0.894531 14 0 13.105469 0 12 Z M 8.75 8.75 L 7.25 8.75 L 7.25 7.25 L 8.75 7.25 Z M 8 4.625 C 5.910156 4.625 4.148438 5.941406 3.453125 7.777344 L 3.367188 8 L 3.453125 8.222656 C 4.148438 10.058594 5.910156 11.375 8 11.375 C 10.089844 11.375 11.851562 10.058594 12.546875 8.222656 L 12.632812 8 L 12.546875 7.777344 C 11.851562 5.941406 10.089844 4.625 8 4.625 Z M 8 10.125 C 6.539062 10.125 5.285156 9.253906 4.710938 8 C 5.285156 6.746094 6.539062 5.875 8 5.875 C 9.460938 5.875 10.714844 6.746094 11.289062 8 C 10.714844 9.253906 9.460938 10.125 8 10.125 Z M 8 10.125 "/>
</svg>
