<?xml version="1.0" encoding="UTF-8"?>
<svg xmlns="http://www.w3.org/2000/svg" xmlns:xlink="http://www.w3.org/1999/xlink" width="16" height="16" viewBox="0 0 16 16">
<path fill-rule="nonzero" fill="rgb(0%, 0%, 0%)" fill-opacity="1" d="M 9.792969 7.316406 L 7.863281 7.316406 C 7.417969 7.316406 7.195312 7.855469 7.507812 8.171875 L 10.191406 10.855469 C 10.386719 11.050781 10.703125 11.050781 10.898438 10.855469 L 13.582031 8.171875 C 13.894531 7.855469 13.671875 7.316406 13.226562 7.316406 L 11.292969 7.316406 L 11.292969 4.382812 L 11.296875 4.382812 L 11.296875 3.132812 L 11.292969 3.132812 L 11.292969 2.308594 L 9.792969 2.308594 L 9.792969 4.382812 L 9.796875 4.382812 L 9.796875 7.316406 Z M 9.792969 7.316406 "/>
<path fill-rule="nonzero" fill="rgb(0%, 0%, 0%)" fill-opacity="1" d="M 14 3.132812 L 12.796875 3.132812 L 12.796875 4.382812 L 14 4.382812 C 14.34375 4.382812 14.625 4.660156 14.625 5.007812 L 14.625 13.007812 C 14.625 13.351562 14.34375 13.632812 14 13.632812 L 2 13.632812 C 1.65625 13.632812 1.375 13.351562 1.375 13.007812 L 1.375 3.007812 C 1.375 2.660156 1.65625 2.382812 2 2.382812 L 5.644531 2.382812 C 5.820312 2.382812 5.988281 2.457031 6.109375 2.589844 L 7.535156 4.175781 C 7.652344 4.308594 7.824219 4.382812 8 4.382812 L 8.289062 4.382812 L 8.289062 3.132812 L 8.277344 3.132812 L 7.035156 1.753906 C 6.679688 1.359375 6.171875 1.132812 5.640625 1.132812 L 2 1.132812 C 0.964844 1.132812 0.125 1.972656 0.125 3.007812 L 0.125 13.007812 C 0.125 14.042969 0.964844 14.882812 2 14.882812 L 14 14.882812 C 15.035156 14.882812 15.875 14.042969 15.875 13.007812 L 15.875 5.007812 C 15.875 3.972656 15.035156 3.132812 14 3.132812 Z M 14 3.132812 "/>
</svg>
