<?xml version="1.0" encoding="UTF-8"?>
<svg xmlns="http://www.w3.org/2000/svg" xmlns:xlink="http://www.w3.org/1999/xlink" width="16" height="16" viewBox="0 0 16 16">
<path fill-rule="nonzero" fill="rgb(0%, 0%, 0%)" fill-opacity="1" d="M 10.429688 1.082031 C 10.511719 1.027344 10.609375 1 10.707031 1 L 14.699219 1 L 15 1.300781 L 15 5.292969 C 15 5.390625 14.96875 5.488281 14.914062 5.570312 C 14.859375 5.652344 14.78125 5.71875 14.691406 5.753906 C 14.597656 5.792969 14.5 5.800781 14.402344 5.78125 C 14.304688 5.765625 14.214844 5.714844 14.144531 5.644531 L 12.691406 4.191406 L 9.066406 7.816406 C 8.949219 7.933594 8.789062 8 8.625 8 C 8.460938 8 8.300781 7.933594 8.183594 7.816406 C 8.066406 7.699219 8 7.542969 8 7.375 C 8 7.210938 8.066406 7.050781 8.183594 6.933594 L 11.808594 3.308594 L 10.351562 1.855469 C 10.28125 1.785156 10.234375 1.695312 10.214844 1.597656 C 10.195312 1.5 10.207031 1.398438 10.246094 1.308594 C 10.28125 1.21875 10.347656 1.140625 10.429688 1.082031 Z M 7.816406 2.066406 C 7.699219 2.183594 7.539062 2.25 7.375 2.25 L 2.851562 2.25 L 2.25 2.851562 L 2.25 13.148438 L 2.851562 13.75 L 13.148438 13.75 L 13.75 13.148438 L 13.75 8.625 C 13.75 8.460938 13.816406 8.300781 13.933594 8.183594 C 14.050781 8.066406 14.210938 8 14.375 8 C 14.539062 8 14.699219 8.066406 14.816406 8.183594 C 14.933594 8.300781 15 8.460938 15 8.625 L 15 13 C 15 13.53125 14.789062 14.039062 14.414062 14.414062 C 14.039062 14.789062 13.53125 15 13 15 L 3 15 C 2.46875 15 1.960938 14.789062 1.585938 14.414062 C 1.210938 14.039062 1 13.53125 1 13 L 1 3 C 1 2.46875 1.210938 1.960938 1.585938 1.585938 C 1.960938 1.210938 2.46875 1 3 1 L 7.375 1 C 7.539062 1 7.699219 1.066406 7.816406 1.183594 C 7.933594 1.300781 8 1.460938 8 1.625 C 8 1.789062 7.933594 1.949219 7.816406 2.066406 Z M 7.816406 2.066406 "/>
</svg>
