<?xml version="1.0" encoding="UTF-8"?>
<svg xmlns="http://www.w3.org/2000/svg" xmlns:xlink="http://www.w3.org/1999/xlink" width="16" height="16" viewBox="0 0 16 16">
<path fill-rule="nonzero" fill="rgb(0%, 0%, 0%)" fill-opacity="1" d="M 8.234375 10.464844 L 11.847656 6.851562 C 11.894531 6.808594 11.929688 6.753906 11.957031 6.691406 C 11.980469 6.628906 11.996094 6.566406 11.996094 6.5 C 11.996094 6.433594 11.980469 6.367188 11.957031 6.308594 C 11.929688 6.246094 11.894531 6.191406 11.847656 6.144531 C 11.753906 6.050781 11.625 6 11.492188 6 C 11.359375 6 11.234375 6.050781 11.140625 6.144531 L 7.992188 9.292969 L 4.847656 6.148438 C 4.753906 6.054688 4.625 6.007812 4.496094 6.007812 C 4.363281 6.007812 4.238281 6.0625 4.144531 6.152344 C 4.054688 6.246094 4 6.371094 4 6.503906 C 4 6.632812 4.050781 6.761719 4.140625 6.855469 L 7.753906 10.46875 Z M 8.234375 10.464844 "/>
</svg>
