<?xml version="1.0" encoding="UTF-8"?>
<svg xmlns="http://www.w3.org/2000/svg" xmlns:xlink="http://www.w3.org/1999/xlink" width="16" height="16" viewBox="0 0 16 16">
<path fill-rule="evenodd" fill="rgb(0%, 0%, 0%)" fill-opacity="1" d="M 16 4 L 16 12.25 C 16 12.78125 15.789062 13.289062 15.414062 13.664062 C 15.039062 14.039062 14.53125 14.25 14 14.25 L 2 14.25 C 1.46875 14.25 0.960938 14.039062 0.585938 13.664062 C 0.210938 13.289062 0 12.78125 0 12.25 L 0 4 C 0 3.46875 0.210938 2.960938 0.585938 2.585938 C 0.960938 2.210938 1.46875 2 2 2 L 14 2 C 14.53125 2 15.039062 2.210938 15.414062 2.585938 C 15.789062 2.960938 16 3.46875 16 4 Z M 1.25 3.851562 L 1.25 12.398438 L 1.851562 13 L 6.75 13 L 6.75 3.25 L 1.851562 3.25 Z M 14.148438 13 L 8 13 L 8 3.25 L 14.148438 3.25 L 14.75 3.851562 L 14.75 12.398438 Z M 5.355469 10.144531 C 5.449219 10.238281 5.5 10.367188 5.5 10.5 C 5.5 10.632812 5.449219 10.761719 5.355469 10.855469 C 5.261719 10.949219 5.132812 11 5 11 L 3 11 C 2.867188 11 2.738281 10.949219 2.644531 10.855469 C 2.550781 10.761719 2.5 10.632812 2.5 10.5 C 2.5 10.367188 2.550781 10.238281 2.644531 10.144531 C 2.738281 10.050781 2.867188 10 3 10 L 5 10 C 5.132812 10 5.261719 10.050781 5.355469 10.144531 Z M 5.5 8 C 5.5 7.867188 5.449219 7.738281 5.355469 7.644531 C 5.261719 7.550781 5.132812 7.5 5 7.5 L 3 7.5 C 2.867188 7.5 2.738281 7.550781 2.644531 7.644531 C 2.550781 7.738281 2.5 7.867188 2.5 8 C 2.5 8.132812 2.550781 8.261719 2.644531 8.355469 C 2.738281 8.449219 2.867188 8.5 3 8.5 L 5 8.5 C 5.132812 8.5 5.261719 8.449219 5.355469 8.355469 C 5.449219 8.261719 5.5 8.132812 5.5 8 Z M 5.355469 5.144531 C 5.449219 5.238281 5.5 5.367188 5.5 5.5 C 5.5 5.632812 5.449219 5.761719 5.355469 5.855469 C 5.261719 5.949219 5.132812 6 5 6 L 3 6 C 2.867188 6 2.738281 5.949219 2.644531 5.855469 C 2.550781 5.761719 2.5 5.632812 2.5 5.5 C 2.5 5.367188 2.550781 5.238281 2.644531 5.144531 C 2.738281 5.050781 2.867188 5 3 5 L 5 5 C 5.132812 5 5.261719 5.050781 5.355469 5.144531 Z M 5.355469 5.144531 "/>
</svg>
