<?xml version="1.0" encoding="UTF-8"?>
<svg xmlns="http://www.w3.org/2000/svg" xmlns:xlink="http://www.w3.org/1999/xlink" width="16" height="16" viewBox="0 0 16 16">
<path fill-rule="nonzero" fill="rgb(0%, 0%, 0%)" fill-opacity="1" d="M 10.089844 10.972656 L 13.933594 14.816406 C 13.992188 14.875 14.058594 14.921875 14.136719 14.953125 C 14.210938 14.984375 14.292969 15 14.375 15 C 14.457031 15 14.539062 14.984375 14.613281 14.953125 C 14.691406 14.921875 14.757812 14.875 14.816406 14.816406 C 14.875 14.757812 14.921875 14.6875 14.953125 14.613281 C 14.984375 14.539062 15 14.457031 15 14.375 C 15 14.292969 14.984375 14.210938 14.953125 14.132812 C 14.921875 14.058594 14.875 13.988281 14.816406 13.933594 L 10.984375 10.101562 L 10.988281 9.671875 C 11.488281 8.964844 11.816406 8.152344 11.941406 7.296875 C 12.066406 6.441406 11.988281 5.566406 11.714844 4.746094 C 11.4375 3.925781 10.972656 3.183594 10.359375 2.574219 C 9.742188 1.96875 8.988281 1.515625 8.164062 1.253906 C 7.339844 0.992188 6.464844 0.925781 5.613281 1.066406 C 4.757812 1.207031 3.949219 1.546875 3.25 2.058594 C 2.550781 2.570312 1.984375 3.238281 1.59375 4.007812 C 1.203125 4.78125 1 5.632812 1 6.5 C 1 7.957031 1.578125 9.359375 2.609375 10.390625 C 3.640625 11.421875 5.042969 12 6.5 12 C 7.6875 12 8.789062 11.621094 9.6875 10.976562 Z M 6.5 10.75 C 4.15625 10.75 2.25 8.84375 2.25 6.5 C 2.25 4.15625 4.15625 2.25 6.5 2.25 C 8.84375 2.25 10.75 4.15625 10.75 6.5 C 10.75 8.84375 8.84375 10.75 6.5 10.75 Z M 6.5 10.75 "/>
</svg>
