<?xml version="1.0" encoding="UTF-8"?>
<svg xmlns="http://www.w3.org/2000/svg" xmlns:xlink="http://www.w3.org/1999/xlink" width="16" height="16" viewBox="0 0 16 16">
<path fill-rule="nonzero" fill="rgb(0%, 0%, 0%)" fill-opacity="1" d="M 7.003906 9.75 L 7.003906 14 C 7.003906 14.164062 7.070312 14.324219 7.1875 14.441406 C 7.304688 14.558594 7.464844 14.625 7.628906 14.625 C 7.796875 14.625 7.953125 14.558594 8.070312 14.441406 C 8.1875 14.324219 8.253906 14.164062 8.253906 14 L 8.253906 9.75 L 8.753906 9.25 L 13.003906 9.25 C 13.171875 9.25 13.328125 9.183594 13.445312 9.066406 C 13.5625 8.949219 13.628906 8.789062 13.628906 8.625 C 13.628906 8.460938 13.5625 8.300781 13.445312 8.183594 C 13.328125 8.066406 13.171875 8 13.003906 8 L 8.753906 8 L 8.253906 7.5 L 8.253906 3.25 C 8.253906 3.085938 8.1875 2.925781 8.070312 2.808594 C 7.953125 2.691406 7.796875 2.625 7.628906 2.625 C 7.464844 2.625 7.304688 2.691406 7.1875 2.808594 C 7.070312 2.925781 7.003906 3.085938 7.003906 3.25 L 7.003906 7.5 L 6.503906 8 L 2.253906 8 C 2.089844 8 1.929688 8.066406 1.8125 8.183594 C 1.695312 8.300781 1.628906 8.460938 1.628906 8.625 C 1.628906 8.789062 1.695312 8.949219 1.8125 9.066406 C 1.929688 9.183594 2.089844 9.25 2.253906 9.25 L 6.390625 9.25 Z M 7.003906 9.75 "/>
</svg>
