<?xml version="1.0" encoding="UTF-8"?>
<svg xmlns="http://www.w3.org/2000/svg" xmlns:xlink="http://www.w3.org/1999/xlink" width="16" height="16" viewBox="0 0 16 16">
<path fill-rule="nonzero" fill="rgb(0%, 0%, 0%)" fill-opacity="1" d="M 2.535156 13.816406 L 8 8.351562 L 8 7.648438 L 2.535156 2.183594 C 2.417969 2.070312 2.261719 2.007812 2.097656 2.011719 C 1.933594 2.011719 1.777344 2.078125 1.664062 2.195312 C 1.546875 2.308594 1.480469 2.464844 1.480469 2.628906 C 1.476562 2.792969 1.539062 2.949219 1.652344 3.066406 L 6.585938 7.996094 L 1.648438 12.933594 C 1.539062 13.050781 1.476562 13.207031 1.476562 13.371094 C 1.480469 13.535156 1.546875 13.691406 1.660156 13.804688 C 1.777344 13.921875 1.929688 13.988281 2.09375 13.988281 C 2.257812 13.992188 2.414062 13.929688 2.535156 13.816406 Z M 8.535156 13.816406 L 14 8.351562 L 14 7.648438 L 8.535156 2.183594 C 8.417969 2.070312 8.261719 2.007812 8.097656 2.011719 C 7.933594 2.011719 7.777344 2.078125 7.664062 2.195312 C 7.546875 2.308594 7.480469 2.464844 7.480469 2.628906 C 7.476562 2.792969 7.539062 2.949219 7.652344 3.066406 L 12.585938 7.996094 L 7.648438 12.933594 C 7.539062 13.050781 7.476562 13.207031 7.476562 13.371094 C 7.480469 13.535156 7.546875 13.691406 7.660156 13.804688 C 7.777344 13.921875 7.929688 13.988281 8.09375 13.988281 C 8.257812 13.992188 8.414062 13.929688 8.535156 13.816406 Z M 8.535156 13.816406 "/>
</svg>
