<?xml version="1.0" encoding="UTF-8"?>
<svg xmlns="http://www.w3.org/2000/svg" xmlns:xlink="http://www.w3.org/1999/xlink" width="16" height="16" viewBox="0 0 16 16">
<path fill-rule="nonzero" fill="rgb(0%, 0%, 0%)" fill-opacity="1" d="M 8.351562 11 L 13.816406 5.535156 C 13.875 5.476562 13.921875 5.40625 13.953125 5.332031 C 13.984375 5.253906 14 5.175781 14 5.089844 C 14 5.007812 13.984375 4.929688 13.953125 4.851562 C 13.921875 4.777344 13.875 4.707031 13.816406 4.648438 C 13.699219 4.53125 13.539062 4.46875 13.375 4.46875 C 13.207031 4.46875 13.050781 4.53125 12.933594 4.648438 L 7.996094 9.585938 L 3.066406 4.652344 C 2.949219 4.539062 2.792969 4.476562 2.628906 4.480469 C 2.464844 4.480469 2.308594 4.546875 2.195312 4.664062 C 2.078125 4.777344 2.011719 4.933594 2.011719 5.097656 C 2.007812 5.261719 2.070312 5.417969 2.183594 5.535156 L 7.648438 11 Z M 8.351562 11 "/>
</svg>
