<?xml version="1.0" encoding="UTF-8"?>
<svg xmlns="http://www.w3.org/2000/svg" xmlns:xlink="http://www.w3.org/1999/xlink" width="16" height="16" viewBox="0 0 16 16">
<path fill-rule="nonzero" fill="rgb(0%, 0%, 0%)" fill-opacity="1" d="M 13 4 L 12 4 L 12 2 C 12 1.46875 11.789062 0.960938 11.414062 0.585938 C 11.039062 0.210938 10.53125 0 10 0 L 6 0 C 5.46875 0 4.960938 0.210938 4.585938 0.585938 C 4.210938 0.960938 4 1.46875 4 2 L 4 4 L 3 4 C 2.46875 4 1.960938 4.210938 1.585938 4.585938 C 1.210938 4.960938 1 5.46875 1 6 L 1 11 C 1 11.53125 1.210938 12.039062 1.585938 12.414062 C 1.960938 12.789062 2.46875 13 3 13 L 4 13 L 4 14 C 4 14.53125 4.210938 15.039062 4.585938 15.414062 C 4.960938 15.789062 5.46875 16 6 16 L 10 16 C 10.53125 16 11.039062 15.789062 11.414062 15.414062 C 11.789062 15.039062 12 14.53125 12 14 L 12 13 L 13 13 C 13.53125 13 14.039062 12.789062 14.414062 12.414062 C 14.789062 12.039062 15 11.53125 15 11 L 15 6 C 15 5.46875 14.789062 4.960938 14.414062 4.585938 C 14.039062 4.210938 13.53125 4 13 4 Z M 10.75 14.148438 L 10.148438 14.75 L 5.851562 14.75 L 5.25 14.148438 L 5.25 10 L 10.75 10 Z M 10.75 4 L 5.25 4 L 5.25 1.851562 L 5.851562 1.25 L 10.148438 1.25 L 10.75 1.851562 Z M 13 7.601562 L 12.601562 8 L 11.398438 8 L 11 7.601562 L 11 6.398438 L 11.398438 6 L 12.601562 6 L 13 6.398438 Z M 13 7.601562 "/>
</svg>
