<?xml version="1.0" encoding="UTF-8"?>
<svg xmlns="http://www.w3.org/2000/svg" xmlns:xlink="http://www.w3.org/1999/xlink" width="16" height="16" viewBox="0 0 16 16">
<path fill-rule="nonzero" fill="rgb(0%, 0%, 0%)" fill-opacity="1" d="M 1.5 3 C 1.5 2.722656 1.722656 2.5 2 2.5 L 14 2.5 C 14.277344 2.5 14.5 2.722656 14.5 3 L 14.5 11 C 14.5 11.277344 14.277344 11.5 14 11.5 L 2 11.5 C 1.722656 11.5 1.5 11.277344 1.5 11 Z M 2 1 C 0.894531 1 0 1.894531 0 3 L 0 11 C 0 12.105469 0.894531 13 2 13 L 2.648438 13 L 1.351562 15.25 L 2.648438 16 L 4.382812 13 L 11.640625 13 L 13.371094 16 L 14.671875 15.25 L 13.371094 13 L 14 13 C 15.105469 13 16 12.105469 16 11 L 16 3 C 16 1.894531 15.105469 1 14 1 Z M 5.796875 4.644531 L 5.796875 9.355469 C 5.796875 9.851562 6.328125 10.160156 6.757812 9.914062 L 10.878906 7.558594 C 11.3125 7.3125 11.3125 6.6875 10.878906 6.441406 L 6.757812 4.085938 C 6.328125 3.839844 5.796875 4.148438 5.796875 4.644531 Z M 5.796875 4.644531 "/>
</svg>
