<?xml version="1.0" encoding="UTF-8"?>
<svg xmlns="http://www.w3.org/2000/svg" xmlns:xlink="http://www.w3.org/1999/xlink" width="16" height="16" viewBox="0 0 16 16">
<path fill-rule="nonzero" fill="rgb(0%, 0%, 0%)" fill-opacity="1" d="M 8.367188 2.34375 C 8.140625 2.21875 7.859375 2.21875 7.632812 2.34375 L 1.382812 5.84375 C 1.148438 5.976562 1 6.230469 1 6.5 C 1 6.769531 1.148438 7.023438 1.382812 7.15625 L 7.632812 10.65625 C 7.859375 10.78125 8.140625 10.78125 8.367188 10.65625 L 14.617188 7.15625 C 14.851562 7.023438 15 6.769531 15 6.5 C 15 6.230469 14.851562 5.976562 14.617188 5.84375 Z M 8 9.140625 L 3.285156 6.5 L 8 3.859375 L 12.714844 6.5 Z M 1.636719 9.078125 L 8 12.640625 L 14.324219 9.097656 L 15.058594 10.40625 L 8.367188 14.15625 C 8.140625 14.28125 7.859375 14.28125 7.632812 14.15625 L 0.902344 10.386719 Z M 1.636719 9.078125 "/>
</svg>
