<?xml version="1.0" encoding="UTF-8"?>
<svg xmlns="http://www.w3.org/2000/svg" xmlns:xlink="http://www.w3.org/1999/xlink" width="16" height="16" viewBox="0 0 16 16">
<path fill-rule="nonzero" fill="rgb(0%, 0%, 0%)" fill-opacity="1" d="M 3 1 C 1.894531 1 1 1.894531 1 3 L 1 13 C 1 14.105469 1.894531 15 3 15 L 13 15 C 14.105469 15 15 14.105469 15 13 L 15 3 C 15 1.894531 14.105469 1 13 1 Z M 13.75 13.148438 L 13.148438 13.75 L 2.851562 13.75 L 2.25 13.148438 L 2.25 2.851562 L 2.851562 2.25 L 13.148438 2.25 L 13.75 2.851562 Z M 13.75 13.148438 "/>
<path fill-rule="nonzero" fill="rgb(0%, 0%, 0%)" fill-opacity="1" d="M 11 12 L 5 12 C 4.449219 12 4 11.550781 4 11 L 4 9.679688 C 4 9.480469 4.078125 9.289062 4.21875 9.148438 L 6.351562 7.003906 C 6.640625 6.710938 7.117188 6.710938 7.410156 7.003906 L 9.523438 9.105469 L 10.136719 8.527344 C 10.429688 8.246094 10.894531 8.253906 11.183594 8.542969 L 11.78125 9.148438 C 11.921875 9.289062 12 9.480469 12 9.679688 L 12 11 C 12 11.550781 11.550781 12 11 12 Z M 11 12 "/>
<path fill-rule="nonzero" fill="rgb(0%, 0%, 0%)" fill-opacity="1" d="M 11.601562 5 L 10.398438 5 L 10 5.398438 L 10 6.601562 L 10.398438 7 L 11.601562 7 L 12 6.601562 L 12 5.398438 Z M 11.601562 5 "/>
</svg>
