<?xml version="1.0" encoding="UTF-8"?>
<svg xmlns="http://www.w3.org/2000/svg" xmlns:xlink="http://www.w3.org/1999/xlink" width="16" height="16" viewBox="0 0 16 16">
<path fill-rule="nonzero" fill="rgb(0%, 0%, 0%)" fill-opacity="1" d="M 2.5 12.625 C 2.617188 12.625 2.738281 12.605469 2.855469 12.566406 L 6.289062 11.421875 L 13.289062 4.421875 C 14.019531 3.691406 14.019531 2.5 13.289062 1.769531 L 12.230469 0.710938 C 11.496094 -0.0195312 10.308594 -0.0195312 9.578125 0.710938 L 2.578125 7.710938 L 1.433594 11.144531 C 1.296875 11.550781 1.402344 11.992188 1.707031 12.296875 C 1.921875 12.511719 2.207031 12.625 2.5 12.625 Z M 10.460938 1.59375 C 10.703125 1.351562 11.101562 1.351562 11.34375 1.59375 L 12.40625 2.65625 C 12.648438 2.898438 12.648438 3.296875 12.40625 3.539062 L 11.339844 4.605469 L 9.394531 2.660156 Z M 3.671875 8.386719 L 8.511719 3.546875 L 10.453125 5.488281 L 5.613281 10.332031 L 2.695312 11.304688 Z M 3.671875 8.386719 "/>
<path fill-rule="nonzero" fill="rgb(0%, 0%, 0%)" fill-opacity="1" d="M 14.816406 13.3125 L 13.023438 13.863281 C 12.332031 14.074219 11.589844 14.109375 10.886719 13.96875 L 8.804688 13.550781 C 7.585938 13.308594 6.296875 13.480469 5.183594 14.035156 C 3.953125 14.652344 2.46875 14.410156 1.492188 13.4375 L 1.441406 13.386719 L 0.609375 14.320312 C 1.464844 15.175781 2.601562 15.625 3.753906 15.625 C 4.429688 15.625 5.109375 15.472656 5.742188 15.152344 C 6.609375 14.722656 7.609375 14.585938 8.558594 14.777344 L 10.640625 15.195312 C 11.550781 15.375 12.5 15.328125 13.386719 15.054688 L 15.183594 14.507812 Z M 14.816406 13.3125 "/>
</svg>
